<?xml version="1.0" encoding="UTF-8" standalone="no"?>
<!-- Created with Inkscape (http://www.inkscape.org/) -->

<svg
   xmlns:dc="http://purl.org/dc/elements/1.1/"
   xmlns:cc="http://creativecommons.org/ns#"
   xmlns:rdf="http://www.w3.org/1999/02/22-rdf-syntax-ns#"
   xmlns:svg="http://www.w3.org/2000/svg"
   xmlns="http://www.w3.org/2000/svg"
   xmlns:sodipodi="http://sodipodi.sourceforge.net/DTD/sodipodi-0.dtd"
   xmlns:inkscape="http://www.inkscape.org/namespaces/inkscape"
   width="744.09448819"
   height="1052.3622047"
   id="svg2"
   version="1.1"
   inkscape:version="0.48.3.1 r9886"
   sodipodi:docname="pipe.svg">
  <defs
     id="defs4" />
  <sodipodi:namedview
     id="base"
     pagecolor="#ffffff"
     bordercolor="#666666"
     borderopacity="1.0"
     inkscape:pageopacity="1"
     inkscape:pageshadow="2"
     inkscape:zoom="0.98994949"
     inkscape:cx="237.56018"
     inkscape:cy="806.45506"
     inkscape:document-units="px"
     inkscape:current-layer="layer1"
     showgrid="true"
     inkscape:window-width="1364"
     inkscape:window-height="722"
     inkscape:window-x="0"
     inkscape:window-y="0"
     inkscape:window-maximized="0">
    <inkscape:grid
       type="xygrid"
       id="grid2985"
       empspacing="5"
       visible="true"
       enabled="true"
       snapvisiblegridlinesonly="true" />
  </sodipodi:namedview>
  <metadata
     id="metadata7">
    <rdf:RDF>
      <cc:Work
         rdf:about="">
        <dc:format>image/svg+xml</dc:format>
        <dc:type
           rdf:resource="http://purl.org/dc/dcmitype/StillImage" />
        <dc:title></dc:title>
      </cc:Work>
    </rdf:RDF>
  </metadata>
  <g
     inkscape:label="Layer 1"
     inkscape:groupmode="layer"
     id="layer1">
    <rect
       style="fill:none;fill-opacity:1;fill-rule:nonzero;stroke:none;stroke-width:3;stroke-linejoin:round;stroke-miterlimit:4;stroke-opacity:1;stroke-dasharray:none;stroke-dashoffset:125.99994999000000462"
       id="rect3960"
       width="220"
       height="130"
       x="40"
       y="32.362183"
       inkscape:export-filename="/home/ale/docs/htdocs/xox/htdocs/md/image/pipe_file.png"
       inkscape:export-xdpi="295.07999"
       inkscape:export-ydpi="295.07999" />
    <path
       style="fill:none;stroke:#000000;stroke-width:3;stroke-linecap:butt;stroke-linejoin:miter;stroke-opacity:1;stroke-miterlimit:4;stroke-dasharray:none"
       d="m 120,72.362183 0,69.999997 -60,0 0,-89.999994 40,-3e-6 z"
       id="path2987"
       inkscape:connector-curvature="0"
       sodipodi:nodetypes="cccccc"
       inkscape:export-filename="/home/ale/docs/htdocs/xox/htdocs/md/image/pipe_file.png"
       inkscape:export-xdpi="295.07999"
       inkscape:export-ydpi="295.07999" />
    <path
       style="fill:none;stroke:#000000;stroke-width:3;stroke-linecap:butt;stroke-linejoin:miter;stroke-opacity:1;stroke-miterlimit:4;stroke-dasharray:none"
       d="m 150,52.362183 0,89.999997"
       id="path2989"
       inkscape:connector-curvature="0"
       inkscape:export-filename="/home/ale/docs/htdocs/xox/htdocs/md/image/pipe_file.png"
       inkscape:export-xdpi="295.07999"
       inkscape:export-ydpi="295.07999" />
    <path
       style="fill:none;stroke:#000000;stroke-width:3;stroke-linecap:butt;stroke-linejoin:miter;stroke-opacity:1;stroke-miterlimit:4;stroke-dasharray:none"
       d="m 180,72.362183 0,69.999997 60,0 0,-89.999987 -40,-10e-6 z"
       id="path2987-6"
       inkscape:connector-curvature="0"
       sodipodi:nodetypes="cccccc"
       inkscape:export-filename="/home/ale/docs/htdocs/xox/htdocs/md/image/pipe_file.png"
       inkscape:export-xdpi="295.07999"
       inkscape:export-ydpi="295.07999" />
    <path
       inkscape:connector-curvature="0"
       style="font-size:12px;fill:none;stroke:#000000;stroke-width:2"
       id="path621"
       d="m 364.515,71.096183 c 1.344,-5.231 7.504,-15.284 2.454,-15.4 -5.05,-0.117 -16.969,0 -16.969,0 0,0 -20,0 -20,-13.334 0,-13.333 13.333,-13.333 26.667,-13.333 13.333,0 33.333,0 33.333,13.333 0,13.334 -13.333,13.334 -13.333,13.334 0,0 -8.711,10.257 -12.152,15.4 z"
       inkscape:export-filename="/home/ale/docs/htdocs/xox/htdocs/md/image/pipe_talking.png"
       inkscape:export-xdpi="257.53"
       inkscape:export-ydpi="257.53" />
    <path
       inkscape:connector-curvature="0"
       style="font-size:12px;fill:none;stroke:#000000;stroke-width:2"
       id="path622"
       d="m 496.188,77.763173 c -0.831,-7.099 1.676,-7.585 1.676,-7.585 0,0 7.33,0 7.33,0 0,0 21.989,0 21.989,-14.659 0,-14.659 -21.989,-14.659 -29.319,-14.659 -7.32999,0 -21.98899,0 -21.98899,14.659 0,14.659 14.659,14.659 14.659,14.659 0,0 1.667,1.018 5.65399,7.585 z"
       inkscape:export-filename="/home/ale/docs/htdocs/xox/htdocs/md/image/pipe_talking.png"
       inkscape:export-xdpi="257.53"
       inkscape:export-ydpi="257.53" />
    <path
       d="m 363.65999,98.609193 c -3.953,4.789997 -10.717,6.660997 -16.745,4.150997 -7.382,-3.072997 -10.879,-11.559997 -7.806,-18.942997 3.074,-7.382 11.561,-10.879 18.943,-7.806 7.383,3.074 10.88,11.561 7.806,18.943 l -13.374,-5.568 11.176,9.223 z"
       id="path650"
       style="font-size:12px;stroke:#000000"
       inkscape:connector-curvature="0"
       inkscape:export-filename="/home/ale/docs/htdocs/xox/htdocs/md/image/pipe_talking.png"
       inkscape:export-xdpi="257.53"
       inkscape:export-ydpi="257.53" />
    <path
       d="m 351.03499,103.87419 -4.829,55.052"
       id="path651"
       style="font-size:12px;fill:none;stroke:#000000;stroke-width:3"
       inkscape:connector-curvature="0"
       inkscape:export-filename="/home/ale/docs/htdocs/xox/htdocs/md/image/pipe_talking.png"
       inkscape:export-xdpi="257.53"
       inkscape:export-ydpi="257.53" />
    <path
       d="m 319.64599,133.81419 17.385,-20.765 27.043,1.449 12.556,28.009 14.004,-17.868 7.244,0.483"
       id="path652"
       style="font-size:12px;fill:none;stroke:#000000;stroke-width:3"
       inkscape:connector-curvature="0"
       inkscape:export-filename="/home/ale/docs/htdocs/xox/htdocs/md/image/pipe_talking.png"
       inkscape:export-xdpi="257.53"
       inkscape:export-ydpi="257.53" />
    <path
       d="m 498.054,100.72018 c -3.113,-5.225997 -2.696,-12.073997 1.508,-16.915997 5.243,-6.039 14.4,-6.684 20.438,-1.442 6.038,5.243 6.684,14.4 1.441,20.437997 -5.242,6.038 -14.399,6.684 -20.437,1.441 l 9.498,-10.938997 -12.448,7.417997 z"
       id="path654"
       style="font-size:12px;stroke:#000000"
       inkscape:connector-curvature="0"
       inkscape:export-filename="/home/ale/docs/htdocs/xox/htdocs/md/image/pipe_talking.png"
       inkscape:export-xdpi="257.53"
       inkscape:export-ydpi="257.53" />
    <path
       d="m 511.126,107.64918 13.039,49.74"
       id="path655"
       style="font-size:12px;fill:none;stroke:#000000;stroke-width:3"
       inkscape:connector-curvature="0"
       inkscape:export-filename="/home/ale/docs/htdocs/xox/htdocs/md/image/pipe_talking.png"
       inkscape:export-xdpi="257.53"
       inkscape:export-ydpi="257.53" />
    <path
       d="m 514.99,124.06818 -32.838,22.214 27.526,4.829"
       id="path656"
       style="font-size:12px;fill:none;stroke:#000000;stroke-width:3"
       inkscape:connector-curvature="0"
       inkscape:export-filename="/home/ale/docs/htdocs/xox/htdocs/md/image/pipe_talking.png"
       inkscape:export-xdpi="257.53"
       inkscape:export-ydpi="257.53" />
    <path
       style="fill:none;stroke:#000000;stroke-width:3;stroke-linecap:butt;stroke-linejoin:miter;stroke-miterlimit:4;stroke-opacity:1;stroke-dasharray:none"
       d="m 430,52.362183 0,89.999997"
       id="path2989-1"
       inkscape:connector-curvature="0"
       inkscape:export-filename="/home/ale/docs/htdocs/xox/htdocs/md/image/pipe_talking.png"
       inkscape:export-xdpi="257.53"
       inkscape:export-ydpi="257.53" />
  </g>
</svg>
